<?xml version="1.0" encoding="utf-8"?>
<!--Generator: Adobe Illustrator 21.1.0, SVG Export Plug-In . SVG Version: 6.00 Build 0)-->
<svg version="1.1" id="Слой_1" xmlns="http://www.w3.org/2000/svg" xmlns:xlink="http://www.w3.org/1999/xlink" x="0px" y="0px" viewBox="0 0 580 261" style="enable-background:new 0 0 580 261" xml:space="preserve">
    <style type="text/css">
        .st2{fill:none}.st2,.st3{stroke:#000}
    </style>
    <g id="Слой_x0020_1">
        <g id="_612943824">
            <radialGradient id="SVGID_1_" cx="6661.478" cy="25648.9434" r="1487.5396" gradientTransform="matrix(-2.412658e-02 3.329745e-02 3.313729e-02 2.427579e-02 -500.0878 -716.2886)" gradientUnits="userSpaceOnUse">
                <stop offset="0" style="stop-color:#ffe93d"/>
                <stop offset="1" style="stop-color:#fc1f02"/>
            </radialGradient>
            <polygon points="180.7,45.5 165,53 148.4,51.9 136.7,64.9 121.1,70.2 115.2,86.6 102.8,97.6 103.7,114.9 96.4,129.8 
			103.8,145.6 102.8,162.1 115.8,173.8 121.1,189.5 137.5,195.3 148.4,207.8 165.8,206.8 180.7,214.2 196.4,206.7 213,207.8 
			224.6,194.8 240.3,189.5 246.1,173 258.6,162.1 257.7,144.7 265,129.8 257.6,114.1 258.6,97.6 245.6,85.9 240.3,70.2 223.9,64.4 
			213,51.9 195.6,52.9 		" style="fill:url(#SVGID_1_)"/>
            <g>
                <g>
                    <defs>
                        <polygon id="SVGID_2_" points="180.7,45.5 165,53 148.4,51.9 136.7,64.9 121.1,70.2 115.2,86.6 102.8,97.6 103.7,114.9 
						96.4,129.8 103.8,145.6 102.8,162.1 115.8,173.8 121.1,189.5 137.5,195.3 148.4,207.8 165.8,206.8 180.7,214.2 196.4,206.7 
						213,207.8 224.6,194.8 240.3,189.5 246.1,173 258.6,162.1 257.7,144.7 265,129.8 257.6,114.1 258.6,97.6 245.6,85.9 
						240.3,70.2 223.9,64.4 213,51.9 195.6,52.9 					"/>
                    </defs>
                    <clipPath id="SVGID_3_">
                        <use xlink:href="#SVGID_2_" style="overflow:visible"/>
                    </clipPath>
                    <g style="clip-path:url(#SVGID_3_)">
                        <g>
                            <path id="_x31_" d="M140.8,164.2c0,0,5.6-17.2,7.2-23.1c1.6-5.9,3.4-11.3,3.4-11.3s-13.3-0.5-18.6-10.9
							c-5.4-10.4-1.3-23.1-1.3-23.1s-0.5-1.1-1-2.7L117.6,109l12.7-16.5c-0.5-1.5-0.9-3.5-1.1-5.6l-8.7,3.4l8.7-3.6
							c-0.3-4.4,0.9-9.1,6.2-11.7c3.7-1.7,7.1-2.3,10.1-2.3l7.5-9.8l1.4,0.7l-7.4,9.1c5.2,0.4,8.7,2.5,8.7,2.5s0.4-0.1,1.1-0.1
							l16.3-6.7c0,0,0.5,1.4,0.6,1.4l-14.1,5.4c4.5,0.2,11.9,1.2,16.6,4.8c7.2,5.6,9,10.4,9.9,12.1c0.9,1.7,4,5.2,3.8,10.8
							c-0.2,5.1-1.3,7.4-1.3,10.3c0.7-0.3,1.3-0.7,1.6-0.9c0.7-0.6,1.5-1.2,1.5-1.2s-1,1.5-1.7,1.9s2.1-1.1,2.7-1.7
							c0.5-0.5,0.9-1,0.9-1s-0.7,1.7-1.8,2.2c-1.1,0.6,2.9-1.9,2.9-1.9s-2.1,2.1-4.4,2.8c-0.6,0.2-1.1,0.3-1.6,0.4
							c0,0.1,0,0.2,0,0.3c0.3,3.6,2.5,7.7,2.8,8.8c0.3,1.1-2.9,1.5-3.6,1.7s-1.3,1.3-1.1,2.5c0.2,1.2,0.4,2.6-1.1,2.6
							c-1.5,0-1.7,0-1.7,0s1.7,0.7,1.3,1.9c-0.3,1.3-0.7,0.7-1.4,1.5c-0.6,0.8-0.9,3.8-1.3,5c-0.4,1.2-2.7,1.9-6.6-0.8
							s-5.9-4.6-5.9-4.6s-5.2,6.9-5.7,13.6c-0.5,6.7,0.7,13.7,0.7,13.7s0.2,1,0.4,3.1c1.9,3.2,4.2,7.3,6,10
							c2.2,3.4,10.3,16.7,13.8,27.7c2.7-7.4,4.8-15.5,4.8-15.5l0.7,0.6l4-11.1c0,0-1.3-3.5-0.2-7.8c1-4.4,4-14.8,5.4-16.2
							c0,0,0.3,1.3,0.1,3.2c-0.2,1.9-1.6,6.5-1.6,6.5s-0.9,2.5,1.3,4.3c2.3,1.7,5.1-0.3,7-1.1c1.9-0.9,9.6-6,9.6-6s3.1-5.8,4.3-7.4
							c1.2-1.7,3.8-3.6,3.8-3.6s-0.5,1-1.2,2.1c-0.7,1.1-2.8,5-2.8,5s2.5-1.7,4.2-3.2c1.7-1.5,3.5-1.8,3.5-1.8s0.1,0.1-0.9,0.7
							c-1,0.6-4.4,4-4.4,4s2.3-1.5,3-1.9c0.7-0.3,2.5-1,2.5-1s-5.7,5-11,9.3c-5.3,4.4-11.7,10.3-11.7,10.3s-1,2-2.6,4.9
							c-1.5,2.8-6,18.8-6,18.8c3.6,21.2,16.1,30.6,14,63.2l-52-5.8c-4.8-0.1-9.8-0.4-12.9-1.5l0,0l0,0c-2.1-0.7-3.4-1.8-3.2-3.4
							c0.7-7.2-4.9-25.7-6.3-44.3C135.1,184,140.8,164.2,140.8,164.2z M221.5,141.9c-0.9,0.9-3.2,1.9-5.1,1.5
							c-0.9,0.1-1.7-0.1-2.5-0.7c-3.1-2.1-1.6-4.6,0.2-4.6c0.9,0,1.6,0.3,2.1,0.7c0.2,0.1,0.4,0.2,0.6,0.4c-0.4-0.7-1-2.5-0.1-4.8
							c1.3-3.1,3.7-5.2,6.2-3.1c0.9,0.7,1,2,0.9,3.4c0.3,0.2,0.5,0.5,0.7,0.7C225.9,137.7,221.5,141.9,221.5,141.9z"/>
                        </g>
                    </g>
                </g>
            </g>
            <polygon class="st2" points="180.7,45.5 165,53 148.4,51.9 136.7,64.9 121.1,70.2 115.2,86.6 102.8,97.6 103.7,114.9 96.4,129.8 
			103.8,145.6 102.8,162.1 115.8,173.8 121.1,189.5 137.5,195.3 148.4,207.8 165.8,206.8 180.7,214.2 196.4,206.7 213,207.8 
			224.6,194.8 240.3,189.5 246.1,173 258.6,162.1 257.7,144.7 265,129.8 257.6,114.1 258.6,97.6 245.6,85.9 240.3,70.2 223.9,64.4 
			213,51.9 195.6,52.9 		"/>
            <line class="st2" x1="213" y1="51.9" x2="148.4" y2="207.8"/>
            <line class="st2" x1="180.7" y1="45.5" x2="180.7" y2="214.2"/>
            <line class="st2" x1="148.4" y1="51.9" x2="213" y2="207.8"/>
            <line class="st2" x1="121.1" y1="70.2" x2="240.3" y2="189.5"/>
            <line class="st2" x1="102.8" y1="97.6" x2="258.6" y2="162.1"/>
            <line class="st2" x1="96.4" y1="129.8" x2="265" y2="129.8"/>
            <line class="st2" x1="102.8" y1="162.1" x2="258.6" y2="97.6"/>
            <line class="st2" x1="121.1" y1="189.5" x2="240.3" y2="70.2"/>
            <path class="st3" d="M174.2,192.7c2-4.2,5.5-6.6,3.4-11.6c-2.1-5-3.3-10.7-3.5-13.2c-0.2-2.5-5-1.1-5.4,2.1
			c-0.4,3.2-1.3,5.9-1.8,7.4c-0.5,1.5-1.4,7,0,9.2C168.4,188.8,174.2,192.7,174.2,192.7z"/>
            <polygon class="st3" points="176.6,137.3 176.3,138.5 167.6,176.5 170.1,176.9 178.1,138.9 		"/>
            <path d="M173.9,169.8c0.4-0.1,1.5-0.5,1.9,1.1c0.5,1.7-1.2,2.7-1.2,2.7s1.2-0.6,1.5-0.5c0.3,0.1,1.5,1.3,1.1,2.7
			c-0.5,1.4-1.9,1.5-1.5,1.3c0.4-0.1-4.2-1-4.2-1L173.9,169.8z"/>
        </g>
        <path d="M298.9,123c0-5.7,1.1-11.5,3.4-17.6S308,92.8,312.5,86h11.9l8.5,41.7L344.4,86h11l7.7,52.7h-11l-6.1-40l-11.2,40h-10.4
		L314.6,92c-3.1,7.7-4.6,16.5-4.6,26.3c0,6.6,1.1,13.4,3.4,20.5h-11.8C299.7,133.4,298.9,128.2,298.9,123z"/>
        <path id="_x31__1_" d="M367.4,118.1c0-4.6,1.9-9.6,5.7-15.1h10.6c-2.2,4.1-3.8,7.6-4.6,10.4c-0.9,2.9-1.3,5.8-1.3,8.7
		c0,4.9,0.6,9.1,1.8,12.6l17-31.8h11.2v35.7h-10.2v-28.9l-15.8,28.9h-5.2c0-1-0.3-2.1-0.9-3.3c-0.6-1.1-1.4-2.2-2.3-3.3
		s-1.8-2.4-2.7-3.6c-0.9-1.3-1.7-2.8-2.3-4.6C367.7,122,367.4,120.1,367.4,118.1z"/>
        <path id="_x32_" d="M414.5,138.7V103h10.2v16.2h4.5c0.3-2.2,1-4.3,2.1-6.3c1-2,2.4-3.8,4-5.4c1.7-1.6,3.6-2.9,5.9-3.8
		c2.3-1,4.8-1.4,7.4-1.4c3,0,5.8,0.6,8.3,1.8c2.5,1.2,4.6,2.8,6.2,4.8s2.9,4.1,3.7,6.5c0.9,2.4,1.4,4.8,1.4,7.3
		c0,2.6-0.5,4.9-1.3,6.9c-0.8,2.1-1.8,3.7-3.2,4.9c-1.3,1.2-2.8,2.2-4.5,3c-1.8,0.8-3.5,1.4-5.3,1.7c-1.7,0.3-3.5,0.5-5.4,0.5
		c-1.8,0-3.6-0.1-5.2-0.5c-1.7-0.2-3.4-0.8-5.2-1.5c-1.8-0.8-3.3-1.8-4.6-2.9c-1.3-1.2-2.4-2.8-3.2-4.6c-0.9-2-1.3-4.1-1.4-6.6h-4.2
		v15.3h-10.2V138.7z M439.6,123.4c0,4.1,0.8,7.2,2.4,9.3c1.6,2.1,3.8,3,6.5,3c2.8,0,4.9-1,6.5-3s2.4-5.2,2.4-9.3
		c0-2.1-0.1-4.1-0.4-6.1c-0.3-1.9-0.7-3.7-1.4-5.5c-0.6-1.8-1.5-3.2-2.8-4.2s-2.7-1.6-4.4-1.6c-1.7,0-3.1,0.6-4.4,1.6
		c-1.2,1-2.1,2.5-2.8,4.2c-0.6,1.8-1.1,3.6-1.4,5.5C439.7,119.3,439.6,121.3,439.6,123.4z"/>
        <polygon id="_x33_" points="473.9,138.7 473.9,103 484.1,103 484.1,134.9 494.3,134.9 494.3,103 504.5,103 504.5,134.9 
		514.8,134.9 514.8,103 525,103 525,138.7 	"/>
        <path id="_x34_" d="M530.8,118.1c0-4.6,1.9-9.6,5.7-15.1h10.6c-2.2,4.1-3.8,7.6-4.6,10.4c-0.8,2.9-1.3,5.8-1.3,8.7
		c0,4.9,0.6,9.1,1.9,12.6L560,103h11.2v35.7H561v-28.9l-15.8,28.9H540c0-1-0.3-2.1-0.9-3.3c-0.6-1.1-1.4-2.2-2.3-3.3
		c-0.9-1.1-1.8-2.4-2.7-3.6c-0.9-1.3-1.7-2.8-2.3-4.6C531.1,122,530.8,120.1,530.8,118.1z"/>
        <path d="M310.1,175.4l2.4,0.3c-0.3,1.7-1,3-2.1,3.9s-2.4,1.4-4,1.4c-2,0-3.6-0.7-4.8-2c-1.2-1.3-1.8-3.2-1.8-5.6
		c0-1.6,0.2-3,0.7-4.1s1.3-2.1,2.4-2.6c1-0.6,2.2-0.9,3.4-0.9c1.5,0,2.9,0.4,3.8,1.1c1,0.8,1.7,2,2,3.4l-2.4,0.3
		c-0.2-1-0.6-1.7-1.2-2.2s-1.3-0.7-2.1-0.7c-1.3,0-2.3,0.5-3,1.3c-0.8,0.9-1.1,2.3-1.1,4.2c0,2,0.3,3.4,1.1,4.2
		c0.7,0.9,1.7,1.3,2.9,1.3c1,0,1.8-0.3,2.4-0.9C309.5,177.6,309.9,176.6,310.1,175.4z"/>
        <path id="_x31__2_" d="M314.4,186.3l-0.3-2.3c0.6,0.1,1,0.2,1.4,0.2c0.6,0,1-0.1,1.3-0.3s0.6-0.5,0.8-0.7c0.2-0.3,0.4-0.9,0.7-1.8
		c0.1-0.2,0.1-0.3,0.2-0.6l-5.5-14.6h2.6l3,8.4c0.3,1.1,0.7,2.2,1,3.4c0.3-1.1,0.6-2.2,1-3.3l3.1-8.5h2.4L321,181
		c-0.6,1.5-1.1,2.6-1.4,3.3c-0.5,0.8-1,1.4-1.5,1.8c-0.6,0.3-1.2,0.6-2,0.6C315.6,186.6,315,186.5,314.4,186.3z"/>
        <polygon id="_x32__1_" points="328.6,166.2 331.1,166.2 331.1,178.7 336.7,178.7 336.7,166.2 339.1,166.2 339.1,178.7 344.8,178.7 
		344.8,166.2 347.2,166.2 347.2,180.7 328.6,180.7 	"/>
        <polygon id="_x33__1_" points="351,166.2 353.4,166.2 353.4,177.3 360.3,166.2 362.9,166.2 362.9,180.7 360.5,180.7 360.5,169.7 
		353.7,180.7 351,180.7 	"/>
        <polygon id="_x34__1_" points="374.4,166.2 376.8,166.2 376.8,177.3 383.7,166.2 386.4,166.2 386.4,180.7 383.9,180.7 383.9,169.7 
		377.1,180.7 374.4,180.7 	"/>
        <path id="_x35__1_" d="M397.8,186.3v-20.1h2.2v1.9c0.5-0.7,1.1-1.3,1.8-1.7c0.6-0.3,1.4-0.5,2.4-0.5c1.3,0,2.4,0.3,3.3,0.9
		c1,0.6,1.7,1.5,2.1,2.7c0.5,1.1,0.7,2.5,0.7,3.8c0,1.5-0.3,2.8-0.8,4c-0.5,1.1-1.3,2.1-2.3,2.7c-1,0.6-2.1,1-3.2,1
		c-0.8,0-1.5-0.2-2.2-0.5c-0.6-0.3-1.1-0.8-1.5-1.3v7.1L397.8,186.3L397.8,186.3z M400.1,173.5c0,1.9,0.3,3.3,1.1,4.1
		c0.7,0.9,1.7,1.3,2.8,1.3s2-0.5,2.8-1.4c0.7-0.9,1.1-2.4,1.1-4.2s-0.3-3.3-1.1-4.2c-0.7-0.9-1.7-1.4-2.7-1.4s-2,0.5-2.8,1.5
		S400.1,171.7,400.1,173.5z"/>
        <path id="_x36__1_" d="M412.5,173.5c0-2.7,0.7-4.7,2.2-6c1.3-1.1,2.8-1.6,4.5-1.6c2,0,3.7,0.6,4.9,2c1.3,1.3,1.9,3.1,1.9,5.4
		c0,1.9-0.3,3.3-0.9,4.4c-0.6,1-1.4,1.9-2.4,2.5c-1.1,0.6-2.2,0.9-3.6,0.9c-2,0-3.7-0.7-4.9-2C413.1,177.8,412.5,175.9,412.5,173.5z
		 M415,173.5c0,1.8,0.4,3.2,1.2,4.1s1.8,1.4,3,1.4c1.3,0,2.3-0.5,3.1-1.4s1.2-2.4,1.2-4.2s-0.4-3.2-1.2-4.1
		c-0.9-0.9-1.8-1.4-3.1-1.4c-1.2,0-2.2,0.5-3,1.4S415,171.6,415,173.5z"/>
        <path id="_x37__1_" d="M429.5,166.2H441v14.5h-2.5v-12.4H432v7.2c0,1.7-0.1,2.8-0.1,3.3c-0.1,0.5-0.5,1-0.9,1.4
		c-0.5,0.4-1.2,0.6-2.1,0.6c-0.6,0-1.3-0.1-2-0.1v-2.1h1.1c0.5,0,0.9-0.1,1.1-0.2c0.2-0.1,0.3-0.2,0.5-0.5c0.1-0.2,0.1-1,0.1-2.2
		v-9.5H429.5z"/>
        <path id="_x38__1_" d="M445.9,166.2h11.5v14.5h-2.5v-12.4h-6.5v7.2c0,1.7-0.1,2.8-0.2,3.3s-0.4,1-0.9,1.4s-1.1,0.6-2.1,0.6
		c-0.6,0-1.2-0.1-2-0.1v-2.1h1.1c0.5,0,0.9-0.1,1.1-0.2c0.2-0.1,0.3-0.2,0.4-0.5s0.1-1,0.1-2.2V166.2z"/>
        <path id="_x39_" d="M474.8,166.2h2.5v14.5h-2.5V166.2z M461.1,166.2h2.5v5.7h3.1c2.1,0,3.6,0.4,4.7,1.2c1.1,0.7,1.7,1.8,1.7,3.2
		c0,1.3-0.5,2.3-1.4,3.2s-2.4,1.3-4.4,1.3h-6.1v-14.6H461.1z M463.5,178.7h2.6c1.5,0,2.7-0.2,3.3-0.6c0.7-0.4,1-1,1-1.8
		c0-0.6-0.3-1.2-0.7-1.7c-0.5-0.5-1.6-0.7-3.3-0.7h-2.9V178.7z"/>
    </g>
</svg>
